<svg xmlns="http://www.w3.org/2000/svg" xmlns:xlink="http://www.w3.org/1999/xlink" contentStyleType="text/css" data-diagram-type="CLASS" height="382px" preserveAspectRatio="none" style="width:466px;height:382px;background:#FFFFFF;" version="1.1" viewBox="0 0 466 382" width="466px" zoomAndPan="magnify"><defs/><g><!--class Product--><g id="elem_Product"><rect codeLine="1" fill="#F1F1F1" height="162.0781" id="Product" rx="2.5" ry="2.5" style="stroke:#181818;stroke-width:0.5;" width="215.3076" x="7" y="213.48"/><ellipse cx="83.5488" cy="229.48" fill="#ADD1B2" rx="11" ry="11" style="stroke:#181818;stroke-width:1;"/><path d="M86.5176,235.1206 Q85.9395,235.4175 85.2988,235.5581 Q84.6582,235.7144 83.9551,235.7144 Q81.4551,235.7144 80.127,234.0738 Q78.8145,232.4175 78.8145,229.2925 Q78.8145,226.1675 80.127,224.5113 Q81.4551,222.855 83.9551,222.855 Q84.6582,222.855 85.2988,223.0113 Q85.9551,223.1675 86.5176,223.4644 L86.5176,226.1831 Q85.8926,225.605 85.2988,225.3394 Q84.7051,225.0581 84.0801,225.0581 Q82.7363,225.0581 82.0488,226.1363 Q81.3613,227.1988 81.3613,229.2925 Q81.3613,231.3863 82.0488,232.4644 Q82.7363,233.5269 84.0801,233.5269 Q84.7051,233.5269 85.2988,233.2613 Q85.8926,232.98 86.5176,232.4019 L86.5176,235.1206 Z " fill="#000000"/><text fill="#000000" font-family="sans-serif" font-size="14" lengthAdjust="spacing" textLength="53.71" x="104.0488" y="234.3267">Product</text><line style="stroke:#181818;stroke-width:0.5;" x1="8" x2="221.3076" y1="245.48" y2="245.48"/><rect fill="#FFFFFF" fill-opacity="0.00000" height="6" style="stroke:#C82930;stroke-width:1;" width="6" x="15" y="256.1284"/><text fill="#000000" font-family="sans-serif" font-size="14" lengthAdjust="spacing" textLength="118.7471" x="27" y="262.4751">partA: std::string</text><rect fill="#FFFFFF" fill-opacity="0.00000" height="6" style="stroke:#C82930;stroke-width:1;" width="6" x="15" y="272.4253"/><text fill="#000000" font-family="sans-serif" font-size="14" lengthAdjust="spacing" textLength="118.7744" x="27" y="278.772">partB: std::string</text><rect fill="#FFFFFF" fill-opacity="0.00000" height="6" style="stroke:#C82930;stroke-width:1;" width="6" x="15" y="288.7222"/><text fill="#000000" font-family="sans-serif" font-size="14" lengthAdjust="spacing" textLength="118.9453" x="27" y="295.0689">partC: std::string</text><line style="stroke:#181818;stroke-width:0.5;" x1="8" x2="221.3076" y1="302.3706" y2="302.3706"/><ellipse cx="18" cy="316.0191" fill="#84BE84" rx="3" ry="3" style="stroke:#038048;stroke-width:1;"/><text fill="#000000" font-family="sans-serif" font-size="14" lengthAdjust="spacing" textLength="188.9111" x="27" y="319.3657">setPartA(partA: std::string)</text><ellipse cx="18" cy="332.3159" fill="#84BE84" rx="3" ry="3" style="stroke:#038048;stroke-width:1;"/><text fill="#000000" font-family="sans-serif" font-size="14" lengthAdjust="spacing" textLength="188.9658" x="27" y="335.6626">setPartB(partB: std::string)</text><ellipse cx="18" cy="348.6128" fill="#84BE84" rx="3" ry="3" style="stroke:#038048;stroke-width:1;"/><text fill="#000000" font-family="sans-serif" font-size="14" lengthAdjust="spacing" textLength="189.3076" x="27" y="351.9595">setPartC(partC: std::string)</text><ellipse cx="18" cy="364.9097" fill="#84BE84" rx="3" ry="3" style="stroke:#038048;stroke-width:1;"/><text fill="#000000" font-family="sans-serif" font-size="14" lengthAdjust="spacing" textLength="47.1064" x="27" y="368.2564">show()</text></g><!--class Builder--><g id="elem_Builder"><rect codeLine="11" fill="#F1F1F1" height="113.1875" id="Builder" rx="2.5" ry="2.5" style="stroke:#181818;stroke-width:0.5;" width="176.5" x="259.4" y="237.93"/><ellipse cx="318.6437" cy="253.93" fill="#A9DCDF" rx="11" ry="11" style="stroke:#181818;stroke-width:1;"/><path d="M318.753,249.2738 L317.5968,254.3519 L319.9249,254.3519 L318.753,249.2738 Z M317.2687,247.0394 L320.253,247.0394 L323.6124,259.43 L321.1593,259.43 L320.3937,256.3675 L317.1124,256.3675 L316.3624,259.43 L313.9249,259.43 L317.2687,247.0394 Z " fill="#000000"/><text fill="#000000" font-family="sans-serif" font-size="14" font-style="italic" lengthAdjust="spacing" textLength="49.5127" x="339.1437" y="258.7767">Builder</text><line style="stroke:#181818;stroke-width:0.5;" x1="260.4" x2="434.9" y1="269.93" y2="269.93"/><line style="stroke:#181818;stroke-width:0.5;" x1="260.4" x2="434.9" y1="277.93" y2="277.93"/><ellipse cx="270.4" cy="291.5784" fill="#84BE84" rx="3" ry="3" style="stroke:#038048;stroke-width:1;"/><text fill="#000000" font-family="sans-serif" font-size="14" lengthAdjust="spacing" textLength="83.1934" x="279.4" y="294.9251">buildPartA()</text><ellipse cx="270.4" cy="307.8753" fill="#84BE84" rx="3" ry="3" style="stroke:#038048;stroke-width:1;"/><text fill="#000000" font-family="sans-serif" font-size="14" lengthAdjust="spacing" textLength="83.2207" x="279.4" y="311.222">buildPartB()</text><ellipse cx="270.4" cy="324.1722" fill="#84BE84" rx="3" ry="3" style="stroke:#038048;stroke-width:1;"/><text fill="#000000" font-family="sans-serif" font-size="14" lengthAdjust="spacing" textLength="83.3916" x="279.4" y="327.5189">buildPartC()</text><ellipse cx="270.4" cy="340.4691" fill="#84BE84" rx="3" ry="3" style="stroke:#038048;stroke-width:1;"/><text fill="#000000" font-family="sans-serif" font-size="14" lengthAdjust="spacing" textLength="150.5" x="279.4" y="343.8157">getProduct(): Product</text></g><!--class ConcreteBuilder--><g id="elem_ConcreteBuilder"><rect codeLine="18" fill="#F1F1F1" height="129.4844" id="ConcreteBuilder" rx="2.5" ry="2.5" style="stroke:#181818;stroke-width:0.5;" width="176.5" x="26.4" y="7"/><ellipse cx="55.622" cy="23" fill="#ADD1B2" rx="11" ry="11" style="stroke:#181818;stroke-width:1;"/><path d="M58.5908,28.6406 Q58.0126,28.9375 57.372,29.0781 Q56.7314,29.2344 56.0283,29.2344 Q53.5283,29.2344 52.2001,27.5938 Q50.8876,25.9375 50.8876,22.8125 Q50.8876,19.6875 52.2001,18.0313 Q53.5283,16.375 56.0283,16.375 Q56.7314,16.375 57.372,16.5313 Q58.0283,16.6875 58.5908,16.9844 L58.5908,19.7031 Q57.9658,19.125 57.372,18.8594 Q56.7783,18.5781 56.1533,18.5781 Q54.8095,18.5781 54.122,19.6563 Q53.4345,20.7188 53.4345,22.8125 Q53.4345,24.9063 54.122,25.9844 Q54.8095,27.0469 56.1533,27.0469 Q56.7783,27.0469 57.372,26.7813 Q57.9658,26.5 58.5908,25.9219 L58.5908,28.6406 Z " fill="#000000"/><text fill="#000000" font-family="sans-serif" font-size="14" lengthAdjust="spacing" textLength="112.8955" x="72.7825" y="27.8467">ConcreteBuilder</text><line style="stroke:#181818;stroke-width:0.5;" x1="27.4" x2="201.9" y1="39" y2="39"/><rect fill="#FFFFFF" fill-opacity="0.00000" height="6" style="stroke:#C82930;stroke-width:1;" width="6" x="34.4" y="49.6484"/><text fill="#000000" font-family="sans-serif" font-size="14" lengthAdjust="spacing" textLength="124.0313" x="46.4" y="55.9951">product: Product*</text><line style="stroke:#181818;stroke-width:0.5;" x1="27.4" x2="201.9" y1="63.2969" y2="63.2969"/><ellipse cx="37.4" cy="76.9453" fill="#84BE84" rx="3" ry="3" style="stroke:#038048;stroke-width:1;"/><text fill="#000000" font-family="sans-serif" font-size="14" lengthAdjust="spacing" textLength="83.1934" x="46.4" y="80.292">buildPartA()</text><ellipse cx="37.4" cy="93.2422" fill="#84BE84" rx="3" ry="3" style="stroke:#038048;stroke-width:1;"/><text fill="#000000" font-family="sans-serif" font-size="14" lengthAdjust="spacing" textLength="83.2207" x="46.4" y="96.5889">buildPartB()</text><ellipse cx="37.4" cy="109.5391" fill="#84BE84" rx="3" ry="3" style="stroke:#038048;stroke-width:1;"/><text fill="#000000" font-family="sans-serif" font-size="14" lengthAdjust="spacing" textLength="83.3916" x="46.4" y="112.8857">buildPartC()</text><ellipse cx="37.4" cy="125.8359" fill="#84BE84" rx="3" ry="3" style="stroke:#038048;stroke-width:1;"/><text fill="#000000" font-family="sans-serif" font-size="14" lengthAdjust="spacing" textLength="150.5" x="46.4" y="129.1826">getProduct(): Product</text></g><!--class Director--><g id="elem_Director"><rect codeLine="26" fill="#F1F1F1" height="96.8906" id="Director" rx="2.5" ry="2.5" style="stroke:#181818;stroke-width:0.5;" width="222.3076" x="237.5" y="23.29"/><ellipse cx="316.1304" cy="39.29" fill="#ADD1B2" rx="11" ry="11" style="stroke:#181818;stroke-width:1;"/><path d="M319.0991,44.9306 Q318.521,45.2275 317.8804,45.3681 Q317.2397,45.5244 316.5366,45.5244 Q314.0366,45.5244 312.7085,43.8838 Q311.396,42.2275 311.396,39.1025 Q311.396,35.9775 312.7085,34.3213 Q314.0366,32.665 316.5366,32.665 Q317.2397,32.665 317.8804,32.8213 Q318.5366,32.9775 319.0991,33.2744 L319.0991,35.9931 Q318.4741,35.415 317.8804,35.1494 Q317.2866,34.8681 316.6616,34.8681 Q315.3179,34.8681 314.6304,35.9463 Q313.9429,37.0088 313.9429,39.1025 Q313.9429,41.1963 314.6304,42.2744 Q315.3179,43.3369 316.6616,43.3369 Q317.2866,43.3369 317.8804,43.0713 Q318.4741,42.79 319.0991,42.2119 L319.0991,44.9306 Z " fill="#000000"/><text fill="#000000" font-family="sans-serif" font-size="14" lengthAdjust="spacing" textLength="56.5469" x="336.6304" y="44.1367">Director</text><line style="stroke:#181818;stroke-width:0.5;" x1="238.5" x2="458.8076" y1="55.29" y2="55.29"/><rect fill="#FFFFFF" fill-opacity="0.00000" height="6" style="stroke:#C82930;stroke-width:1;" width="6" x="245.5" y="65.9384"/><text fill="#000000" font-family="sans-serif" font-size="14" lengthAdjust="spacing" textLength="114.4746" x="257.5" y="72.2851">builder: Builder*</text><line style="stroke:#181818;stroke-width:0.5;" x1="238.5" x2="458.8076" y1="79.5869" y2="79.5869"/><ellipse cx="248.5" cy="93.2353" fill="#84BE84" rx="3" ry="3" style="stroke:#038048;stroke-width:1;"/><text fill="#000000" font-family="sans-serif" font-size="14" lengthAdjust="spacing" textLength="196.3076" x="257.5" y="96.582">setBuilder(builder: Builder*)</text><ellipse cx="248.5" cy="109.5322" fill="#84BE84" rx="3" ry="3" style="stroke:#038048;stroke-width:1;"/><text fill="#000000" font-family="sans-serif" font-size="14" lengthAdjust="spacing" textLength="76.6582" x="257.5" y="112.8789">construct()</text></g><!--link Director to Builder--><g id="link_Director_Builder"><path codeLine="32" d="M348.44,120.65 C348.28,155.02 348.0966,195.4301 347.9366,231.5201 " fill="#FFFFFF" fill-opacity="0.00000" id="Director-to-Builder" style="stroke:#181818;stroke-width:1;"/><polygon fill="#181818" points="347.91,237.52,351.9499,228.5378,347.9322,232.52,343.9499,228.5024,347.91,237.52" style="stroke:#181818;stroke-width:1;"/><text fill="#000000" font-family="sans-serif" font-size="13" lengthAdjust="spacing" textLength="29.7832" x="348.65" y="179.5469">uses</text></g><!--link ConcreteBuilder to Builder--><g id="link_ConcreteBuilder_Builder"><path codeLine="33" d="M182.36,136.9 C215.95,168.72 243.0853,194.428 275.4253,225.078 " fill="#FFFFFF" fill-opacity="0.00000" id="ConcreteBuilder-to-Builder" style="stroke:#181818;stroke-width:1;"/><polygon fill="#FFFFFF" fill-opacity="0.00000" points="288.49,237.46,279.5526,220.7231,271.298,229.4329,288.49,237.46" style="stroke:#181818;stroke-width:1;"/><text fill="#000000" font-family="sans-serif" font-size="13" lengthAdjust="spacing" textLength="76.9082" x="232.65" y="179.5469">implements</text></g><!--link ConcreteBuilder to Product--><g id="link_ConcreteBuilder_Product"><path codeLine="34" d="M114.65,136.9 C114.65,160.7 114.65,182.01 114.65,207.09 " fill="#FFFFFF" fill-opacity="0.00000" id="ConcreteBuilder-to-Product" style="stroke:#181818;stroke-width:1;"/><polygon fill="#181818" points="114.65,213.09,118.65,204.09,114.65,208.09,110.65,204.09,114.65,213.09" style="stroke:#181818;stroke-width:1;"/><text fill="#000000" font-family="sans-serif" font-size="13" lengthAdjust="spacing" textLength="48.3247" x="115.65" y="179.5469">creates</text></g><!--SRC=[jL9B3i8W4DrpYbbI3HTWqSJM0tW5IYVQf1O3qxXGxoujBQr5bx9ZtcFU9-XMEGSdQ-fU4pmO-2FWfYmT93YgfNHac-wy0efVG9a2Ut18fs4RJtTcdvI2fzitb9AdEf5oCNUUiHTZglA8yd7q6AxecxP6EuNRGpNSWwTiEohIKHb7PsyY5CKpENSs20QTqdJQ8k6ddgyc4EEBtPzz71kBcinYe0g6vDp4RYbrcl24Ccjfq_aoHwb18UuM8e_5IkWTEhRDByHppMckjnQlsD4tPXw_e0GFAKBt1W00]--></g></svg>