<svg xmlns="http://www.w3.org/2000/svg" xmlns:xlink="http://www.w3.org/1999/xlink" contentStyleType="text/css" data-diagram-type="CLASS" height="1046px" preserveAspectRatio="none" style="width:1092px;height:1046px;background:#FFFFFF;" version="1.1" viewBox="0 0 1092 1046" width="1092px" zoomAndPan="magnify"><defs/><g><!--cluster IoCDependencyInjectionLog--><g id="cluster_IoCDependencyInjectionLog"><path d="M8.5,6 L229.5146,6 A3.75,3.75 0 0 1 232.0146,8.5 L239.0146,28.2969 L1082.5,28.2969 A2.5,2.5 0 0 1 1085,30.7969 L1085,1037.44 A2.5,2.5 0 0 1 1082.5,1039.94 L8.5,1039.94 A2.5,2.5 0 0 1 6,1037.44 L6,8.5 A2.5,2.5 0 0 1 8.5,6 " fill="#FFFFFF" fill-opacity="0.00000" style="stroke:#000000;stroke-width:1.5;"/><line style="stroke:#000000;stroke-width:1.5;" x1="6" x2="239.0146" y1="28.2969" y2="28.2969"/><text fill="#000000" font-family="sans-serif" font-size="14" font-weight="bold" lengthAdjust="spacing" textLength="220.0146" x="10" y="20.9951">IoCDependencyInjectionLog</text></g><!--class LifetimeScope--><g id="elem_LifetimeScope"><rect codeLine="3" fill="#F1F1F1" height="80.5938" id="LifetimeScope" rx="2.5" ry="2.5" style="stroke:#181818;stroke-width:0.5;" width="131.5107" x="22.24" y="57.3"/><ellipse cx="37.24" cy="73.3" fill="#EB937F" rx="11" ry="11" style="stroke:#181818;stroke-width:1;"/><path d="M41.3494,79.3 L33.6306,79.3 L33.6306,66.9094 L41.3494,66.9094 L41.3494,69.0656 L36.0838,69.0656 L36.0838,71.7375 L40.8494,71.7375 L40.8494,73.8938 L36.0838,73.8938 L36.0838,77.1438 L41.3494,77.1438 L41.3494,79.3 Z " fill="#000000"/><text fill="#000000" font-family="sans-serif" font-size="14" lengthAdjust="spacing" textLength="99.5107" x="51.24" y="78.1467">LifetimeScope</text><line style="stroke:#181818;stroke-width:0.5;" x1="23.24" x2="152.7507" y1="89.3" y2="89.3"/><text fill="#000000" font-family="sans-serif" font-size="14" lengthAdjust="spacing" textLength="65.9668" x="28.24" y="106.2951">Singleton</text><text fill="#000000" font-family="sans-serif" font-size="14" lengthAdjust="spacing" textLength="65.9189" x="28.24" y="122.592">Transient</text><line style="stroke:#181818;stroke-width:0.5;" x1="23.24" x2="152.7507" y1="129.8938" y2="129.8938"/></g><!--class IDatabase--><g id="elem_IDatabase"><rect codeLine="8" fill="#F1F1F1" height="64.2969" id="IDatabase" rx="2.5" ry="2.5" style="stroke:#181818;stroke-width:0.5;" width="102.9297" x="404.54" y="834.35"/><ellipse cx="419.54" cy="850.35" fill="#B4A7E5" rx="11" ry="11" style="stroke:#181818;stroke-width:1;"/><path d="M415.4619,846.1156 L415.4619,843.9594 L422.8525,843.9594 L422.8525,846.1156 L420.3838,846.1156 L420.3838,854.1938 L422.8525,854.1938 L422.8525,856.35 L415.4619,856.35 L415.4619,854.1938 L417.9306,854.1938 L417.9306,846.1156 L415.4619,846.1156 Z " fill="#000000"/><text fill="#000000" font-family="sans-serif" font-size="14" font-style="italic" lengthAdjust="spacing" textLength="70.9297" x="433.54" y="855.1967">IDatabase</text><line style="stroke:#181818;stroke-width:0.5;" x1="405.54" x2="506.4697" y1="866.35" y2="866.35"/><line style="stroke:#181818;stroke-width:0.5;" x1="405.54" x2="506.4697" y1="874.35" y2="874.35"/><ellipse cx="415.54" cy="887.9984" fill="#84BE84" rx="3" ry="3" style="stroke:#038048;stroke-width:1;"/><text fill="#000000" font-family="sans-serif" font-size="14" font-style="italic" lengthAdjust="spacing" textLength="66.7324" x="424.54" y="891.3451">connect()</text></g><!--class ILogger--><g id="elem_ILogger"><rect codeLine="12" fill="#F1F1F1" height="64.2969" id="ILogger" rx="2.5" ry="2.5" style="stroke:#181818;stroke-width:0.5;" width="201.6426" x="388.18" y="519.16"/><ellipse cx="458.4329" cy="535.16" fill="#B4A7E5" rx="11" ry="11" style="stroke:#181818;stroke-width:1;"/><path d="M454.3548,530.9256 L454.3548,528.7694 L461.7454,528.7694 L461.7454,530.9256 L459.2767,530.9256 L459.2767,539.0038 L461.7454,539.0038 L461.7454,541.16 L454.3548,541.16 L454.3548,539.0038 L456.8236,539.0038 L456.8236,530.9256 L454.3548,530.9256 Z " fill="#000000"/><text fill="#000000" font-family="sans-serif" font-size="14" font-style="italic" lengthAdjust="spacing" textLength="52.6367" x="478.9329" y="540.0067">ILogger</text><line style="stroke:#181818;stroke-width:0.5;" x1="389.18" x2="588.8226" y1="551.16" y2="551.16"/><line style="stroke:#181818;stroke-width:0.5;" x1="389.18" x2="588.8226" y1="559.16" y2="559.16"/><ellipse cx="399.18" cy="572.8084" fill="#84BE84" rx="3" ry="3" style="stroke:#038048;stroke-width:1;"/><text fill="#000000" font-family="sans-serif" font-size="14" font-style="italic" lengthAdjust="spacing" textLength="175.6426" x="408.18" y="576.1551">log(message: std::string)</text></g><!--class ILogManager--><g id="elem_ILogManager"><rect codeLine="16" fill="#F1F1F1" height="64.2969" id="ILogManager" rx="2.5" ry="2.5" style="stroke:#181818;stroke-width:0.5;" width="263.002" x="697.5" y="519.16"/><ellipse cx="779.3774" cy="535.16" fill="#B4A7E5" rx="11" ry="11" style="stroke:#181818;stroke-width:1;"/><path d="M775.2993,530.9256 L775.2993,528.7694 L782.6899,528.7694 L782.6899,530.9256 L780.2212,530.9256 L780.2212,539.0038 L782.6899,539.0038 L782.6899,541.16 L775.2993,541.16 L775.2993,539.0038 L777.7681,539.0038 L777.7681,530.9256 L775.2993,530.9256 Z " fill="#000000"/><text fill="#000000" font-family="sans-serif" font-size="14" font-style="italic" lengthAdjust="spacing" textLength="90.7471" x="799.8774" y="540.0067">ILogManager</text><line style="stroke:#181818;stroke-width:0.5;" x1="698.5" x2="959.502" y1="551.16" y2="551.16"/><line style="stroke:#181818;stroke-width:0.5;" x1="698.5" x2="959.502" y1="559.16" y2="559.16"/><ellipse cx="708.5" cy="572.8084" fill="#84BE84" rx="3" ry="3" style="stroke:#038048;stroke-width:1;"/><text fill="#000000" font-family="sans-serif" font-size="14" font-style="italic" lengthAdjust="spacing" textLength="237.002" x="717.5" y="576.1551">logMessage(message: std::string)</text></g><!--class IoCContainer--><g id="elem_IoCContainer"><rect codeLine="20" fill="#F1F1F1" height="210.9688" id="IoCContainer" rx="2.5" ry="2.5" style="stroke:#181818;stroke-width:0.5;" width="620.2959" x="190.85" y="231.19"/><ellipse cx="451.3061" cy="247.19" fill="#ADD1B2" rx="11" ry="11" style="stroke:#181818;stroke-width:1;"/><path d="M454.2748,252.8306 Q453.6967,253.1275 453.0561,253.2681 Q452.4154,253.4244 451.7123,253.4244 Q449.2123,253.4244 447.8842,251.7838 Q446.5717,250.1275 446.5717,247.0025 Q446.5717,243.8775 447.8842,242.2213 Q449.2123,240.565 451.7123,240.565 Q452.4154,240.565 453.0561,240.7213 Q453.7123,240.8775 454.2748,241.1744 L454.2748,243.8931 Q453.6498,243.315 453.0561,243.0494 Q452.4623,242.7681 451.8373,242.7681 Q450.4936,242.7681 449.8061,243.8463 Q449.1186,244.9088 449.1186,247.0025 Q449.1186,249.0963 449.8061,250.1744 Q450.4936,251.2369 451.8373,251.2369 Q452.4623,251.2369 453.0561,250.9713 Q453.6498,250.69 454.2748,250.1119 L454.2748,252.8306 Z " fill="#000000"/><text fill="#000000" font-family="sans-serif" font-size="14" lengthAdjust="spacing" textLength="90.8838" x="471.8061" y="252.0367">IoCContainer</text><line style="stroke:#181818;stroke-width:0.5;" x1="191.85" x2="810.1459" y1="263.19" y2="263.19"/><line style="stroke:#181818;stroke-width:0.5;" x1="191.85" x2="810.1459" y1="271.19" y2="271.19"/><rect fill="#F24D5C" height="6" style="stroke:#C82930;stroke-width:1;" width="6" x="198.85" y="281.8384"/><text fill="#000000" font-family="sans-serif" font-size="14" lengthAdjust="spacing" textLength="594.2959" x="210.85" y="288.1851">services: std::unordered_map&lt;std::string, std::function&lt;std::shared_ptr&lt;void&gt;()&gt;&gt;</text><ellipse cx="201.85" cy="301.1353" fill="#84BE84" rx="3" ry="3" style="stroke:#038048;stroke-width:1;"/><text fill="#000000" font-family="sans-serif" font-size="14" lengthAdjust="spacing" textLength="340.2725" x="210.85" y="304.482">registerService&lt;TInterface, TImplementation&gt;()</text><ellipse cx="201.85" cy="317.4322" fill="#84BE84" rx="3" ry="3" style="stroke:#038048;stroke-width:1;"/><text fill="#000000" font-family="sans-serif" font-size="14" lengthAdjust="spacing" textLength="490.0068" x="210.85" y="320.7789">registerService&lt;TInterface, TImplementation&gt;(scope: LifetimeScope)</text><ellipse cx="201.85" cy="333.7291" fill="#84BE84" rx="3" ry="3" style="stroke:#038048;stroke-width:1;"/><text fill="#000000" font-family="sans-serif" font-size="14" lengthAdjust="spacing" textLength="472.001" x="210.85" y="337.0757">registerServiceWithDependencies&lt;TInterface, TImplementation&gt;()</text><ellipse cx="201.85" cy="350.0259" fill="#84BE84" rx="3" ry="3" style="stroke:#038048;stroke-width:1;"/><text fill="#000000" font-family="sans-serif" font-size="14" lengthAdjust="spacing" textLength="372.2852" x="210.85" y="353.3726">registerLazyService&lt;TInterface, TImplementation&gt;()</text><ellipse cx="201.85" cy="366.3228" fill="#84BE84" rx="3" ry="3" style="stroke:#038048;stroke-width:1;"/><text fill="#000000" font-family="sans-serif" font-size="14" lengthAdjust="spacing" textLength="168.9639" x="210.85" y="369.6695">isRegistered&lt;T&gt;(): bool</text><ellipse cx="201.85" cy="382.6197" fill="#84BE84" rx="3" ry="3" style="stroke:#038048;stroke-width:1;"/><text fill="#000000" font-family="sans-serif" font-size="14" lengthAdjust="spacing" textLength="45.459" x="210.85" y="385.9664">clear()</text><ellipse cx="201.85" cy="398.9166" fill="#84BE84" rx="3" ry="3" style="stroke:#038048;stroke-width:1;"/><text fill="#000000" font-family="sans-serif" font-size="14" lengthAdjust="spacing" textLength="241.3701" x="210.85" y="402.2632">resolve&lt;T&gt;(): std::shared_ptr&lt;T&gt;</text><rect fill="#F24D5C" height="6" style="stroke:#C82930;stroke-width:1;" width="6" x="198.85" y="412.2134"/><text fill="#000000" font-family="sans-serif" font-size="14" lengthAdjust="spacing" textLength="294.6494" x="210.85" y="418.5601">createInstance&lt;T&gt;(): std::shared_ptr&lt;T&gt;</text><rect fill="#F24D5C" height="6" style="stroke:#C82930;stroke-width:1;" width="6" x="198.85" y="428.5103"/><text fill="#000000" font-family="sans-serif" font-size="14" lengthAdjust="spacing" textLength="198.7822" x="210.85" y="434.857">validateDependencies&lt;T&gt;()</text></g><!--class ServiceCollection--><g id="elem_ServiceCollection"><rect codeLine="33" fill="#F1F1F1" height="113.1875" id="ServiceCollection" rx="2.5" ry="2.5" style="stroke:#181818;stroke-width:0.5;" width="625.3066" x="188.35" y="41"/><ellipse cx="436.2587" cy="57" fill="#ADD1B2" rx="11" ry="11" style="stroke:#181818;stroke-width:1;"/><path d="M439.2274,62.6406 Q438.6493,62.9375 438.0087,63.0781 Q437.3681,63.2344 436.6649,63.2344 Q434.1649,63.2344 432.8368,61.5938 Q431.5243,59.9375 431.5243,56.8125 Q431.5243,53.6875 432.8368,52.0313 Q434.1649,50.375 436.6649,50.375 Q437.3681,50.375 438.0087,50.5313 Q438.6649,50.6875 439.2274,50.9844 L439.2274,53.7031 Q438.6024,53.125 438.0087,52.8594 Q437.4149,52.5781 436.7899,52.5781 Q435.4462,52.5781 434.7587,53.6563 Q434.0712,54.7188 434.0712,56.8125 Q434.0712,58.9063 434.7587,59.9844 Q435.4462,61.0469 436.7899,61.0469 Q437.4149,61.0469 438.0087,60.7813 Q438.6024,60.5 439.2274,59.9219 L439.2274,62.6406 Z " fill="#000000"/><text fill="#000000" font-family="sans-serif" font-size="14" lengthAdjust="spacing" textLength="120.9893" x="456.7587" y="61.8467">ServiceCollection</text><line style="stroke:#181818;stroke-width:0.5;" x1="189.35" x2="812.6566" y1="73" y2="73"/><rect fill="#FFFFFF" fill-opacity="0.00000" height="6" style="stroke:#C82930;stroke-width:1;" width="6" x="196.35" y="83.6484"/><text fill="#000000" font-family="sans-serif" font-size="14" lengthAdjust="spacing" textLength="166.3867" x="208.35" y="89.9951">container: IoCContainer</text><line style="stroke:#181818;stroke-width:0.5;" x1="189.35" x2="812.6566" y1="97.2969" y2="97.2969"/><ellipse cx="199.35" cy="110.9453" fill="#84BE84" rx="3" ry="3" style="stroke:#038048;stroke-width:1;"/><text fill="#000000" font-family="sans-serif" font-size="14" lengthAdjust="spacing" textLength="467.626" x="208.35" y="114.292">addSingleton&lt;TInterface, TImplementation&gt;(): ServiceCollection&amp;</text><ellipse cx="199.35" cy="127.2422" fill="#84BE84" rx="3" ry="3" style="stroke:#038048;stroke-width:1;"/><text fill="#000000" font-family="sans-serif" font-size="14" lengthAdjust="spacing" textLength="467.5781" x="208.35" y="130.5889">addTransient&lt;TInterface, TImplementation&gt;(): ServiceCollection&amp;</text><ellipse cx="199.35" cy="143.5391" fill="#84BE84" rx="3" ry="3" style="stroke:#038048;stroke-width:1;"/><text fill="#000000" font-family="sans-serif" font-size="14" lengthAdjust="spacing" textLength="599.3066" x="208.35" y="146.8857">addTransientWithDependencies&lt;TInterface, TImplementation&gt;(): ServiceCollection&amp;</text></g><!--class Database--><g id="elem_Database"><rect codeLine="40" fill="#F1F1F1" height="64.2969" id="Database" rx="2.5" ry="2.5" style="stroke:#181818;stroke-width:0.5;" width="98.8008" x="406.6" y="959.64"/><ellipse cx="421.6" cy="975.64" fill="#ADD1B2" rx="11" ry="11" style="stroke:#181818;stroke-width:1;"/><path d="M424.5688,981.2806 Q423.9906,981.5775 423.35,981.7181 Q422.7094,981.8744 422.0063,981.8744 Q419.5063,981.8744 418.1781,980.2338 Q416.8656,978.5775 416.8656,975.4525 Q416.8656,972.3275 418.1781,970.6713 Q419.5063,969.015 422.0063,969.015 Q422.7094,969.015 423.35,969.1713 Q424.0063,969.3275 424.5688,969.6244 L424.5688,972.3431 Q423.9438,971.765 423.35,971.4994 Q422.7563,971.2181 422.1313,971.2181 Q420.7875,971.2181 420.1,972.2963 Q419.4125,973.3588 419.4125,975.4525 Q419.4125,977.5463 420.1,978.6244 Q420.7875,979.6869 422.1313,979.6869 Q422.7563,979.6869 423.35,979.4213 Q423.9438,979.14 424.5688,978.5619 L424.5688,981.2806 Z " fill="#000000"/><text fill="#000000" font-family="sans-serif" font-size="14" lengthAdjust="spacing" textLength="66.8008" x="435.6" y="980.4867">Database</text><line style="stroke:#181818;stroke-width:0.5;" x1="407.6" x2="504.4008" y1="991.64" y2="991.64"/><line style="stroke:#181818;stroke-width:0.5;" x1="407.6" x2="504.4008" y1="999.64" y2="999.64"/><ellipse cx="417.6" cy="1013.2884" fill="#84BE84" rx="3" ry="3" style="stroke:#038048;stroke-width:1;"/><text fill="#000000" font-family="sans-serif" font-size="14" lengthAdjust="spacing" textLength="66.7324" x="426.6" y="1016.6351">connect()</text></g><!--class Logger--><g id="elem_Logger"><rect codeLine="44" fill="#F1F1F1" height="96.8906" id="Logger" rx="2.5" ry="2.5" style="stroke:#181818;stroke-width:0.5;" width="360.1338" x="275.93" y="660.46"/><ellipse cx="427.493" cy="676.46" fill="#ADD1B2" rx="11" ry="11" style="stroke:#181818;stroke-width:1;"/><path d="M430.4617,682.1006 Q429.8836,682.3975 429.243,682.5381 Q428.6024,682.6944 427.8992,682.6944 Q425.3992,682.6944 424.0711,681.0538 Q422.7586,679.3975 422.7586,676.2725 Q422.7586,673.1475 424.0711,671.4913 Q425.3992,669.835 427.8992,669.835 Q428.6024,669.835 429.243,669.9913 Q429.8992,670.1475 430.4617,670.4444 L430.4617,673.1631 Q429.8367,672.585 429.243,672.3194 Q428.6492,672.0381 428.0242,672.0381 Q426.6805,672.0381 425.993,673.1163 Q425.3055,674.1788 425.3055,676.2725 Q425.3055,678.3663 425.993,679.4444 Q426.6805,680.5069 428.0242,680.5069 Q428.6492,680.5069 429.243,680.2413 Q429.8367,679.96 430.4617,679.3819 L430.4617,682.1006 Z " fill="#000000"/><text fill="#000000" font-family="sans-serif" font-size="14" lengthAdjust="spacing" textLength="48.5078" x="447.993" y="681.3067">Logger</text><line style="stroke:#181818;stroke-width:0.5;" x1="276.93" x2="635.0638" y1="692.46" y2="692.46"/><rect fill="#FFFFFF" fill-opacity="0.00000" height="6" style="stroke:#C82930;stroke-width:1;" width="6" x="283.93" y="703.1084"/><text fill="#000000" font-family="sans-serif" font-size="14" lengthAdjust="spacing" textLength="227.5684" x="295.93" y="709.4551">db: std::shared_ptr&lt;IDatabase&gt;</text><line style="stroke:#181818;stroke-width:0.5;" x1="276.93" x2="635.0638" y1="716.7569" y2="716.7569"/><ellipse cx="286.93" cy="730.4053" fill="#84BE84" rx="3" ry="3" style="stroke:#038048;stroke-width:1;"/><text fill="#000000" font-family="sans-serif" font-size="14" lengthAdjust="spacing" textLength="334.1338" x="295.93" y="733.752">Logger(database: std::shared_ptr&lt;IDatabase&gt;)</text><ellipse cx="286.93" cy="746.7022" fill="#84BE84" rx="3" ry="3" style="stroke:#038048;stroke-width:1;"/><text fill="#000000" font-family="sans-serif" font-size="14" lengthAdjust="spacing" textLength="175.6426" x="295.93" y="750.0489">log(message: std::string)</text></g><!--class LogManager--><g id="elem_LogManager"><rect codeLine="50" fill="#F1F1F1" height="96.8906" id="LogManager" rx="2.5" ry="2.5" style="stroke:#181818;stroke-width:0.5;" width="398.2441" x="670.88" y="660.46"/><ellipse cx="822.443" cy="676.46" fill="#ADD1B2" rx="11" ry="11" style="stroke:#181818;stroke-width:1;"/><path d="M825.4117,682.1006 Q824.8336,682.3975 824.193,682.5381 Q823.5524,682.6944 822.8492,682.6944 Q820.3492,682.6944 819.0211,681.0538 Q817.7086,679.3975 817.7086,676.2725 Q817.7086,673.1475 819.0211,671.4913 Q820.3492,669.835 822.8492,669.835 Q823.5524,669.835 824.193,669.9913 Q824.8492,670.1475 825.4117,670.4444 L825.4117,673.1631 Q824.7867,672.585 824.193,672.3194 Q823.5992,672.0381 822.9742,672.0381 Q821.6305,672.0381 820.943,673.1163 Q820.2555,674.1788 820.2555,676.2725 Q820.2555,678.3663 820.943,679.4444 Q821.6305,680.5069 822.9742,680.5069 Q823.5992,680.5069 824.193,680.2413 Q824.7867,679.96 825.4117,679.3819 L825.4117,682.1006 Z " fill="#000000"/><text fill="#000000" font-family="sans-serif" font-size="14" lengthAdjust="spacing" textLength="86.6182" x="842.943" y="681.3067">LogManager</text><line style="stroke:#181818;stroke-width:0.5;" x1="671.88" x2="1068.1241" y1="692.46" y2="692.46"/><rect fill="#FFFFFF" fill-opacity="0.00000" height="6" style="stroke:#C82930;stroke-width:1;" width="6" x="678.88" y="703.1084"/><text fill="#000000" font-family="sans-serif" font-size="14" lengthAdjust="spacing" textLength="227.5684" x="690.88" y="709.4551">db: std::shared_ptr&lt;IDatabase&gt;</text><line style="stroke:#181818;stroke-width:0.5;" x1="671.88" x2="1068.1241" y1="716.7569" y2="716.7569"/><ellipse cx="681.88" cy="730.4053" fill="#84BE84" rx="3" ry="3" style="stroke:#038048;stroke-width:1;"/><text fill="#000000" font-family="sans-serif" font-size="14" lengthAdjust="spacing" textLength="372.2441" x="690.88" y="733.752">LogManager(database: std::shared_ptr&lt;IDatabase&gt;)</text><ellipse cx="681.88" cy="746.7022" fill="#84BE84" rx="3" ry="3" style="stroke:#038048;stroke-width:1;"/><text fill="#000000" font-family="sans-serif" font-size="14" lengthAdjust="spacing" textLength="237.002" x="690.88" y="750.0489">logMessage(message: std::string)</text></g><!--class IoCScope--><g id="elem_IoCScope"><rect codeLine="56" fill="#F1F1F1" height="96.8906" id="IoCScope" rx="2.5" ry="2.5" style="stroke:#181818;stroke-width:0.5;" width="220.708" x="848.65" y="49.15"/><ellipse cx="922.1944" cy="65.15" fill="#ADD1B2" rx="11" ry="11" style="stroke:#181818;stroke-width:1;"/><path d="M925.1632,70.7906 Q924.5851,71.0875 923.9444,71.2281 Q923.3038,71.3844 922.6007,71.3844 Q920.1007,71.3844 918.7726,69.7438 Q917.4601,68.0875 917.4601,64.9625 Q917.4601,61.8375 918.7726,60.1813 Q920.1007,58.525 922.6007,58.525 Q923.3038,58.525 923.9444,58.6813 Q924.6007,58.8375 925.1632,59.1344 L925.1632,61.8531 Q924.5382,61.275 923.9444,61.0094 Q923.3507,60.7281 922.7257,60.7281 Q921.3819,60.7281 920.6944,61.8063 Q920.0069,62.8688 920.0069,64.9625 Q920.0069,67.0563 920.6944,68.1344 Q921.3819,69.1969 922.7257,69.1969 Q923.3507,69.1969 923.9444,68.9313 Q924.5382,68.65 925.1632,68.0719 L925.1632,70.7906 Z " fill="#000000"/><text fill="#000000" font-family="sans-serif" font-size="14" lengthAdjust="spacing" textLength="65.1191" x="942.6944" y="69.9967">IoCScope</text><line style="stroke:#181818;stroke-width:0.5;" x1="849.65" x2="1068.358" y1="81.15" y2="81.15"/><rect fill="#FFFFFF" fill-opacity="0.00000" height="6" style="stroke:#C82930;stroke-width:1;" width="6" x="856.65" y="91.7984"/><text fill="#000000" font-family="sans-serif" font-size="14" lengthAdjust="spacing" textLength="177.3037" x="868.65" y="98.1451">container: IoCContainer&amp;</text><line style="stroke:#181818;stroke-width:0.5;" x1="849.65" x2="1068.358" y1="105.4469" y2="105.4469"/><ellipse cx="859.65" cy="119.0953" fill="#84BE84" rx="3" ry="3" style="stroke:#038048;stroke-width:1;"/><text fill="#000000" font-family="sans-serif" font-size="14" lengthAdjust="spacing" textLength="194.708" x="868.65" y="122.442">IoCScope(c: IoCContainer&amp;)</text><polygon fill="#4177AF" points="859.65,131.3922,855.65,137.3922,863.65,137.3922" style="stroke:#1963A0;stroke-width:1;"/><text fill="#000000" font-family="sans-serif" font-size="14" lengthAdjust="spacing" textLength="76.043" x="868.65" y="138.7389">IoCScope()</text></g><!--reverse link IDatabase to Database--><g id="link_IDatabase_Database"><path codeLine="62" d="M456,916.93 C456,935.48 456,940.88 456,959.42 " fill="#FFFFFF" fill-opacity="0.00000" id="IDatabase-backto-Database" style="stroke:#181818;stroke-width:1;stroke-dasharray:7.0,7.0;"/><polygon fill="#FFFFFF" fill-opacity="0.00000" points="456,898.93,450,916.93,462,916.93,456,898.93" style="stroke:#181818;stroke-width:1;"/></g><!--reverse link ILogger to Logger--><g id="link_ILogger_Logger"><path codeLine="63" d="M478.5879,601.3989 C473.9379,623.3389 471.38,635.38 466.12,660.2 " fill="#FFFFFF" fill-opacity="0.00000" id="ILogger-backto-Logger" style="stroke:#181818;stroke-width:1;stroke-dasharray:7.0,7.0;"/><polygon fill="#FFFFFF" fill-opacity="0.00000" points="482.32,583.79,472.7183,600.1548,484.4576,602.6429,482.32,583.79" style="stroke:#181818;stroke-width:1;"/></g><!--reverse link ILogManager to LogManager--><g id="link_ILogManager_LogManager"><path codeLine="64" d="M841.8856,601.1961 C847.6656,623.1361 850.89,635.38 857.43,660.2 " fill="#FFFFFF" fill-opacity="0.00000" id="ILogManager-backto-LogManager" style="stroke:#181818;stroke-width:1;stroke-dasharray:7.0,7.0;"/><polygon fill="#FFFFFF" fill-opacity="0.00000" points="837.3,583.79,836.0835,602.7246,847.6876,599.6676,837.3,583.79" style="stroke:#181818;stroke-width:1;"/></g><!--link Logger to IDatabase--><g id="link_Logger_IDatabase"><path codeLine="66" d="M456,757.43 C456,782.27 456,806 456,827.98 " fill="#FFFFFF" fill-opacity="0.00000" id="Logger-to-IDatabase" style="stroke:#181818;stroke-width:1;"/><polygon fill="#181818" points="456,833.98,460,824.98,456,828.98,452,824.98,456,833.98" style="stroke:#181818;stroke-width:1;"/><text fill="#000000" font-family="sans-serif" font-size="13" lengthAdjust="spacing" textLength="76.0894" x="457" y="800.4169">depends on</text></g><!--link LogManager to IDatabase--><g id="link_LogManager_IDatabase"><path codeLine="67" d="M742.69,757.75 C663.68,787.44 571.9964,821.8992 513.4864,843.8892 " fill="#FFFFFF" fill-opacity="0.00000" id="LogManager-to-IDatabase" style="stroke:#181818;stroke-width:1;"/><polygon fill="#181818" points="507.87,846,517.7019,846.578,512.5504,844.241,514.8874,839.0894,507.87,846" style="stroke:#181818;stroke-width:1;"/><text fill="#000000" font-family="sans-serif" font-size="13" lengthAdjust="spacing" textLength="76.0894" x="664" y="800.4169">depends on</text></g><!--link IoCContainer to IDatabase--><g id="link_IoCContainer_IDatabase"><path codeLine="69" d="M394.22,442.62 C342.29,501.24 285.3,578.8 258,660.46 C244.35,701.3 236.03,720.31 258,757.35 C289.38,810.23 350.9949,837.1996 398.4049,851.4796 " fill="#FFFFFF" fill-opacity="0.00000" id="IoCContainer-to-IDatabase" style="stroke:#181818;stroke-width:1;"/><polygon fill="#181818" points="404.15,853.21,396.686,846.7843,399.3625,851.768,394.3788,854.4444,404.15,853.21" style="stroke:#181818;stroke-width:1;"/><text fill="#000000" font-family="sans-serif" font-size="13" lengthAdjust="spacing" textLength="54.1455" x="277" y="626.5269">resolves</text></g><!--link IoCContainer to ILogger--><g id="link_IoCContainer_ILogger"><path codeLine="70" d="M495.09,442.43 C493.51,470.32 492.2662,492.3594 491.1162,512.8494 " fill="#FFFFFF" fill-opacity="0.00000" id="IoCContainer-to-ILogger" style="stroke:#181818;stroke-width:1;"/><polygon fill="#181818" points="490.78,518.84,495.278,510.0783,491.0602,513.8479,487.2906,509.63,490.78,518.84" style="stroke:#181818;stroke-width:1;"/><text fill="#000000" font-family="sans-serif" font-size="13" lengthAdjust="spacing" textLength="54.1455" x="494" y="485.2269">resolves</text></g><!--link IoCContainer to ILogManager--><g id="link_IoCContainer_ILogManager"><path codeLine="71" d="M662.6,442.43 C705.61,470.32 743.8152,495.0864 775.4252,515.5764 " fill="#FFFFFF" fill-opacity="0.00000" id="IoCContainer-to-ILogManager" style="stroke:#181818;stroke-width:1;"/><polygon fill="#181818" points="780.46,518.84,775.0836,510.5881,776.2644,516.1203,770.7321,517.3011,780.46,518.84" style="stroke:#181818;stroke-width:1;"/><text fill="#000000" font-family="sans-serif" font-size="13" lengthAdjust="spacing" textLength="54.1455" x="733" y="485.2269">resolves</text></g><!--link ServiceCollection to IoCContainer--><g id="link_ServiceCollection_IoCContainer"><path codeLine="73" d="M501,154.48 C501,177.34 501,198.57 501,224.88 " fill="#FFFFFF" fill-opacity="0.00000" id="ServiceCollection-to-IoCContainer" style="stroke:#181818;stroke-width:1;"/><polygon fill="#181818" points="501,230.88,505,221.88,501,225.88,497,221.88,501,230.88" style="stroke:#181818;stroke-width:1;"/><text fill="#000000" font-family="sans-serif" font-size="13" lengthAdjust="spacing" textLength="29.7832" x="502" y="197.2569">uses</text></g><!--link IoCScope to IoCContainer--><g id="link_IoCScope_IoCContainer"><path codeLine="74" d="M866.59,146.43 C819.56,170.78 765.7384,198.6317 708.8084,228.1017 " fill="#FFFFFF" fill-opacity="0.00000" id="IoCScope-to-IoCContainer" style="stroke:#181818;stroke-width:1;"/><polygon fill="#181818" points="703.48,230.86,713.3115,230.2749,707.9203,228.5614,709.6338,223.1703,703.48,230.86" style="stroke:#181818;stroke-width:1;"/><text fill="#000000" font-family="sans-serif" font-size="13" lengthAdjust="spacing" textLength="29.7832" x="785" y="197.2569">uses</text></g><!--SRC=[hLLDZvim4Btlh_2fOjLbVm12NB8NfEobGUgncjWJrfMnaUr4scxJtrw3ZHT8I8hKd6BFUs_6yuM41aqB54cfDY_OecGewNifVoArNCcjgid7mmCXA8yDsV83MjxWZgeMtJrnlnsNjK2hP7-gD4Z3KLftEdSyBYtgG-_W1IpimGp4hn-mDrO3jMT2bPJEOV9uXUP2g55V8GbL9ovw0pLcn5YMPSxYebaGUGK9YqAlNkUs7XLWJ9UeZP8Mk8nYgK5zuXHDu1sbqWmriXyDjFb8widR3qVPPpUOtg23jbRd9yLPaJmMXOzHOysDUyFEo-TLERpeYLHbqmfiNAgXaohwtAtbcAwGsRIkrtM-S_iM-uEZMHNB5dwzhta3Dzy24rbUkUkCx9KItaW5WlxqO9GuOG3DqrdvFAPK8rWifR4WwJtm2GHd3ZvzRP7CsY2yPwE4yACoz08TcYERj8gF5nYB0tCd5TcbYozH9CxPVn5PMTm5qL5ovgD-CTyUDXdjbEqlYnANHfW8pqXOkBr521roTql4KAOBub_32QoL8QtRD-DzkzHVeQm3Eg4pi_Vz9zgZby-zdFz-VewbwooXFlsz_nzkXrGDbd3kv08dJOkHSaPOtrw6zD-9aS8DNEThl6ldq33xvYekX74VDGGoGZhevNJt-B50HevcaFK5MeAS_m80]--></g></svg>