<svg xmlns="http://www.w3.org/2000/svg" xmlns:xlink="http://www.w3.org/1999/xlink" contentStyleType="text/css" data-diagram-type="CLASS" height="337px" preserveAspectRatio="none" style="width:427px;height:337px;background:#FFFFFF;" version="1.1" viewBox="0 0 427 337" width="427px" zoomAndPan="magnify"><title>Prototype Design Pattern</title><defs/><g><text fill="#000000" font-family="sans-serif" font-size="14" font-weight="bold" lengthAdjust="spacing" textLength="201.8721" x="105.5825" y="22.9951">Prototype Design Pattern</text><!--class Prototype--><g id="elem_Prototype"><rect codeLine="3" fill="#F1F1F1" height="113.1875" id="Prototype" rx="2.5" ry="2.5" style="stroke:#181818;stroke-width:0.5;" width="156.2725" x="135.38" y="44.2969"/><ellipse cx="175.6609" cy="60.2969" fill="#A9DCDF" rx="11" ry="11" style="stroke:#181818;stroke-width:1;"/><path d="M175.7702,55.6406 L174.614,60.7188 L176.9421,60.7188 L175.7702,55.6406 Z M174.2859,53.4063 L177.2702,53.4063 L180.6296,65.7969 L178.1765,65.7969 L177.4109,62.7344 L174.1296,62.7344 L173.3796,65.7969 L170.9421,65.7969 L174.2859,53.4063 Z " fill="#000000"/><text fill="#000000" font-family="sans-serif" font-size="14" font-style="italic" lengthAdjust="spacing" textLength="68.0928" x="195.2788" y="65.1436">Prototype</text><line style="stroke:#181818;stroke-width:0.5;" x1="136.38" x2="290.6525" y1="76.2969" y2="76.2969"/><line style="stroke:#181818;stroke-width:0.5;" x1="136.38" x2="290.6525" y1="84.2969" y2="84.2969"/><ellipse cx="146.38" cy="97.9453" fill="#84BE84" rx="3" ry="3" style="stroke:#038048;stroke-width:1;"/><text fill="#000000" font-family="sans-serif" font-size="14" lengthAdjust="spacing" textLength="79.0166" x="155.38" y="101.292">Prototype()</text><ellipse cx="146.38" cy="114.2422" fill="#84BE84" rx="3" ry="3" style="stroke:#038048;stroke-width:1;"/><text fill="#000000" font-family="sans-serif" font-size="14" lengthAdjust="spacing" textLength="90.7471" x="155.38" y="117.5889">~Prototype()</text><ellipse cx="146.38" cy="130.5391" fill="#84BE84" rx="3" ry="3" style="stroke:#038048;stroke-width:1;"/><text fill="#000000" font-family="sans-serif" font-size="14" lengthAdjust="spacing" textLength="130.2725" x="155.38" y="133.8857">clone() : Prototype</text><ellipse cx="146.38" cy="146.8359" fill="#84BE84" rx="3" ry="3" style="stroke:#038048;stroke-width:1;"/><text fill="#000000" font-family="sans-serif" font-size="14" lengthAdjust="spacing" textLength="87.0625" x="155.38" y="150.1826">print() : void</text></g><!--class ConcretePrototype1--><g id="elem_ConcretePrototype1"><rect codeLine="10" fill="#F1F1F1" height="113.1875" id="ConcretePrototype1" rx="2.5" ry="2.5" style="stroke:#181818;stroke-width:0.5;" width="189.0371" x="7" y="217.4869"/><ellipse cx="29.4944" cy="233.4869" fill="#ADD1B2" rx="11" ry="11" style="stroke:#181818;stroke-width:1;"/><path d="M32.4632,239.1275 Q31.8851,239.4244 31.2444,239.565 Q30.6038,239.7213 29.9007,239.7213 Q27.4007,239.7213 26.0726,238.0806 Q24.7601,236.4244 24.7601,233.2994 Q24.7601,230.1744 26.0726,228.5181 Q27.4007,226.8619 29.9007,226.8619 Q30.6038,226.8619 31.2444,227.0181 Q31.9007,227.1744 32.4632,227.4713 L32.4632,230.19 Q31.8382,229.6119 31.2444,229.3463 Q30.6507,229.065 30.0257,229.065 Q28.6819,229.065 27.9944,230.1431 Q27.3069,231.2056 27.3069,233.2994 Q27.3069,235.3931 27.9944,236.4713 Q28.6819,237.5338 30.0257,237.5338 Q30.6507,237.5338 31.2444,237.2681 Q31.8382,236.9869 32.4632,236.4088 L32.4632,239.1275 Z " fill="#000000"/><text fill="#000000" font-family="sans-serif" font-size="14" lengthAdjust="spacing" textLength="140.3828" x="45.1599" y="238.3336">ConcretePrototype1</text><line style="stroke:#181818;stroke-width:0.5;" x1="8" x2="195.0371" y1="249.4869" y2="249.4869"/><line style="stroke:#181818;stroke-width:0.5;" x1="8" x2="195.0371" y1="257.4869" y2="257.4869"/><ellipse cx="18" cy="271.1353" fill="#84BE84" rx="3" ry="3" style="stroke:#038048;stroke-width:1;"/><text fill="#000000" font-family="sans-serif" font-size="14" lengthAdjust="spacing" textLength="151.3066" x="27" y="274.482">ConcretePrototype1()</text><ellipse cx="18" cy="287.4322" fill="#84BE84" rx="3" ry="3" style="stroke:#038048;stroke-width:1;"/><text fill="#000000" font-family="sans-serif" font-size="14" lengthAdjust="spacing" textLength="163.0371" x="27" y="290.7789">~ConcretePrototype1()</text><ellipse cx="18" cy="303.7291" fill="#84BE84" rx="3" ry="3" style="stroke:#038048;stroke-width:1;"/><text fill="#000000" font-family="sans-serif" font-size="14" lengthAdjust="spacing" textLength="130.2725" x="27" y="307.0757">clone() : Prototype</text><ellipse cx="18" cy="320.0259" fill="#84BE84" rx="3" ry="3" style="stroke:#038048;stroke-width:1;"/><text fill="#000000" font-family="sans-serif" font-size="14" lengthAdjust="spacing" textLength="87.0625" x="27" y="323.3726">print() : void</text></g><!--class ConcretePrototype2--><g id="elem_ConcretePrototype2"><rect codeLine="17" fill="#F1F1F1" height="113.1875" id="ConcretePrototype2" rx="2.5" ry="2.5" style="stroke:#181818;stroke-width:0.5;" width="189.0371" x="231" y="217.4869"/><ellipse cx="253.4944" cy="233.4869" fill="#ADD1B2" rx="11" ry="11" style="stroke:#181818;stroke-width:1;"/><path d="M256.4632,239.1275 Q255.8851,239.4244 255.2444,239.565 Q254.6038,239.7213 253.9007,239.7213 Q251.4007,239.7213 250.0726,238.0806 Q248.7601,236.4244 248.7601,233.2994 Q248.7601,230.1744 250.0726,228.5181 Q251.4007,226.8619 253.9007,226.8619 Q254.6038,226.8619 255.2444,227.0181 Q255.9007,227.1744 256.4632,227.4713 L256.4632,230.19 Q255.8382,229.6119 255.2444,229.3463 Q254.6507,229.065 254.0257,229.065 Q252.6819,229.065 251.9944,230.1431 Q251.3069,231.2056 251.3069,233.2994 Q251.3069,235.3931 251.9944,236.4713 Q252.6819,237.5338 254.0257,237.5338 Q254.6507,237.5338 255.2444,237.2681 Q255.8382,236.9869 256.4632,236.4088 L256.4632,239.1275 Z " fill="#000000"/><text fill="#000000" font-family="sans-serif" font-size="14" lengthAdjust="spacing" textLength="140.3828" x="269.1599" y="238.3336">ConcretePrototype2</text><line style="stroke:#181818;stroke-width:0.5;" x1="232" x2="419.0371" y1="249.4869" y2="249.4869"/><line style="stroke:#181818;stroke-width:0.5;" x1="232" x2="419.0371" y1="257.4869" y2="257.4869"/><ellipse cx="242" cy="271.1353" fill="#84BE84" rx="3" ry="3" style="stroke:#038048;stroke-width:1;"/><text fill="#000000" font-family="sans-serif" font-size="14" lengthAdjust="spacing" textLength="151.3066" x="251" y="274.482">ConcretePrototype2()</text><ellipse cx="242" cy="287.4322" fill="#84BE84" rx="3" ry="3" style="stroke:#038048;stroke-width:1;"/><text fill="#000000" font-family="sans-serif" font-size="14" lengthAdjust="spacing" textLength="163.0371" x="251" y="290.7789">~ConcretePrototype2()</text><ellipse cx="242" cy="303.7291" fill="#84BE84" rx="3" ry="3" style="stroke:#038048;stroke-width:1;"/><text fill="#000000" font-family="sans-serif" font-size="14" lengthAdjust="spacing" textLength="130.2725" x="251" y="307.0757">clone() : Prototype</text><ellipse cx="242" cy="320.0259" fill="#84BE84" rx="3" ry="3" style="stroke:#038048;stroke-width:1;"/><text fill="#000000" font-family="sans-serif" font-size="14" lengthAdjust="spacing" textLength="87.0625" x="251" y="323.3726">print() : void</text></g><!--reverse link Prototype to ConcretePrototype1--><g id="link_Prototype_ConcretePrototype1"><path codeLine="24" d="M166.9974,173.0109 C154.5574,192.0309 150.51,198.1969 138.08,217.1969 " fill="#FFFFFF" fill-opacity="0.00000" id="Prototype-backto-ConcretePrototype1" style="stroke:#181818;stroke-width:1;"/><polygon fill="#FFFFFF" fill-opacity="0.00000" points="176.85,157.9469,161.976,169.7267,172.0187,176.2951,176.85,157.9469" style="stroke:#181818;stroke-width:1;"/></g><!--reverse link Prototype to ConcretePrototype2--><g id="link_Prototype_ConcretePrototype2"><path codeLine="25" d="M260.0426,173.0109 C272.4826,192.0309 276.52,198.1969 288.95,217.1969 " fill="#FFFFFF" fill-opacity="0.00000" id="Prototype-backto-ConcretePrototype2" style="stroke:#181818;stroke-width:1;"/><polygon fill="#FFFFFF" fill-opacity="0.00000" points="250.19,157.9469,255.0213,176.2951,265.064,169.7267,250.19,157.9469" style="stroke:#181818;stroke-width:1;"/></g><!--SRC=[AyaioKbL22ZAByalgIn8LN19BSvCprC8I2mfIItAu-9AJ2ekAKfCBb58paaiBaPIMCsbeA0DvsfeWhXrQFpadFmy85F12g4F95nGb9bN0XOkoyzCuQhbue8OxfoVbroKMf8ALsm8iGLJ76eTBWbAxJN2OQyHBdkDIBGN4OmsDRgwM3nEK8KH0000]--></g></svg>